<?xml version="1.0" encoding="UTF-8"?>
<svg xmlns="http://www.w3.org/2000/svg" xmlns:xlink="http://www.w3.org/1999/xlink" width="100px" height="100px" viewBox="0 0 100 100" version="1.1">
<g id="surface1">
<path style=" stroke:none;fill-rule:nonzero;fill:rgb(40.784314%,40.784314%,40.784314%);fill-opacity:1;" d="M 48.777344 7.628906 L 49.03125 7.625 C 49.300781 7.625 49.570312 7.625 49.839844 7.625 L 49.980469 7.625 C 51.398438 7.625 52.808594 7.644531 54.21875 7.800781 L 54.351562 7.8125 C 58.464844 8.253906 62.527344 9.214844 67.253906 11.21875 L 67.4375 11.300781 C 68.847656 11.933594 70.21875 12.632812 71.542969 13.429688 C 71.683594 13.511719 71.824219 13.59375 71.964844 13.675781 C 72.617188 14.0625 73.25 14.476562 73.878906 14.902344 L 74.011719 14.996094 C 74.988281 15.660156 75.921875 16.375 76.832031 17.125 C 76.917969 17.195312 77.003906 17.265625 77.085938 17.332031 C 77.371094 17.5625 77.648438 17.804688 77.921875 18.050781 C 78.027344 18.148438 78.136719 18.246094 78.25 18.339844 C 78.707031 18.742188 79.152344 19.160156 79.582031 19.59375 C 79.6875 19.699219 79.796875 19.796875 79.910156 19.890625 C 80.121094 20.070312 80.304688 20.273438 80.492188 20.480469 C 80.652344 20.660156 80.824219 20.835938 80.996094 21.007812 C 81.183594 21.191406 81.359375 21.378906 81.53125 21.578125 C 81.636719 21.703125 81.746094 21.824219 81.859375 21.945312 C 82.066406 22.175781 82.261719 22.414062 82.457031 22.65625 C 82.570312 22.792969 82.683594 22.929688 82.800781 23.0625 C 83.089844 23.402344 83.367188 23.75 83.636719 24.105469 C 83.710938 24.203125 83.785156 24.296875 83.855469 24.394531 C 84.480469 25.214844 85.070312 26.058594 85.628906 26.921875 L 85.703125 27.035156 C 88.074219 30.707031 89.84375 34.722656 90.972656 38.941406 L 91.019531 39.117188 C 91.710938 41.691406 92.128906 44.351562 92.308594 47.007812 L 92.320312 47.214844 C 92.355469 47.753906 92.371094 48.296875 92.371094 48.839844 L 92.375 49.097656 C 92.375 49.371094 92.375 49.644531 92.375 49.917969 L 92.375 50.0625 C 92.375 51.472656 92.359375 52.871094 92.199219 54.273438 L 92.171875 54.539062 C 91.722656 58.652344 90.730469 62.71875 88.78125 67.253906 L 88.699219 67.4375 C 88.066406 68.847656 87.367188 70.21875 86.570312 71.542969 C 86.488281 71.683594 86.40625 71.824219 86.324219 71.964844 C 85.9375 72.617188 85.523438 73.25 85.097656 73.878906 L 85.003906 74.011719 C 84.523438 74.714844 84.015625 75.394531 83.492188 76.070312 L 83.40625 76.179688 C 83.082031 76.601562 82.742188 77.015625 82.394531 77.421875 C 82.316406 77.511719 82.238281 77.605469 82.160156 77.695312 C 81.820312 78.097656 81.472656 78.484375 81.113281 78.871094 C 81.039062 78.949219 80.96875 79.027344 80.898438 79.109375 C 80.53125 79.511719 80.152344 79.898438 79.769531 80.28125 L 79.6875 80.363281 C 79.410156 80.640625 79.132812 80.910156 78.835938 81.167969 C 78.679688 81.304688 78.527344 81.449219 78.375 81.589844 C 78.113281 81.839844 77.835938 82.074219 77.554688 82.300781 C 77.410156 82.417969 77.273438 82.539062 77.132812 82.660156 C 76.78125 82.960938 76.421875 83.253906 76.054688 83.53125 C 75.957031 83.605469 75.859375 83.675781 75.765625 83.75 C 73.90625 85.160156 71.929688 86.402344 69.871094 87.5 L 69.71875 87.582031 C 65.839844 89.671875 61.554688 91.078125 53.042969 92.308594 L 52.847656 92.320312 C 51.960938 92.378906 51.074219 92.371094 50.191406 92.371094 L 50.0625 92.371094 C 47.617188 92.371094 47.617188 92.371094 46.421875 92.265625 C 46.308594 92.253906 46.191406 92.242188 46.078125 92.234375 C 42.929688 91.964844 39.808594 91.3125 36.804688 90.332031 L 36.695312 90.296875 C 34.058594 89.4375 31.496094 88.320312 29.089844 86.9375 C 28.96875 86.867188 28.851562 86.800781 28.730469 86.734375 C 27.660156 86.148438 26.640625 85.472656 25.640625 84.777344 L 25.535156 84.703125 C 24.632812 84.074219 23.761719 83.394531 22.917969 82.691406 L 22.824219 82.613281 C 22.46875 82.320312 22.121094 82.015625 21.78125 81.703125 C 21.664062 81.597656 21.546875 81.492188 21.429688 81.390625 C 20.871094 80.902344 20.339844 80.386719 19.816406 79.863281 L 19.6875 79.738281 C 19.464844 79.515625 19.25 79.289062 19.046875 79.046875 C 18.960938 78.949219 18.871094 78.859375 18.777344 78.765625 C 18.578125 78.570312 18.398438 78.363281 18.214844 78.152344 L 18.0625 77.976562 C 17.429688 77.253906 16.816406 76.515625 16.238281 75.746094 L 16.15625 75.636719 C 13.308594 71.824219 11.0625 67.578125 9.1875 61.644531 L 9.132812 61.453125 C 8.523438 59.304688 8.121094 57.109375 7.867188 54.894531 L 7.847656 54.753906 C 7.675781 53.246094 7.617188 51.742188 7.621094 50.226562 C 7.621094 50.089844 7.621094 49.949219 7.621094 49.8125 C 7.625 48.460938 7.648438 47.121094 7.800781 45.78125 L 7.828125 45.515625 C 8.292969 41.257812 9.347656 37.097656 18.375 21.699219 C 18.476562 21.585938 18.578125 21.472656 18.675781 21.359375 C 18.820312 21.191406 18.976562 21.035156 19.132812 20.878906 C 19.226562 20.785156 19.3125 20.6875 19.398438 20.585938 C 19.625 20.328125 19.863281 20.085938 20.109375 19.839844 L 20.238281 19.710938 C 20.46875 19.480469 20.699219 19.261719 20.945312 19.050781 C 21.113281 18.90625 21.273438 18.75 21.4375 18.597656 C 21.71875 18.332031 22.003906 18.082031 22.304688 17.84375 C 22.429688 17.742188 22.546875 17.636719 22.667969 17.527344 C 22.953125 17.273438 23.253906 17.039062 23.558594 16.804688 C 23.667969 16.714844 23.78125 16.628906 23.894531 16.539062 C 26.042969 14.851562 28.371094 13.398438 30.808594 12.160156 C 30.972656 12.078125 31.136719 11.992188 31.300781 11.90625 C 35.144531 9.9375 39.410156 8.667969 45.804688 7.785156 L 45.953125 7.773438 C 46.089844 7.757812 46.230469 7.746094 46.371094 7.734375 L 46.488281 7.722656 C 47.25 7.660156 48.011719 7.628906 48.777344 7.628906 "/>
<path style=" stroke:none;fill-rule:nonzero;fill:rgb(99.607843%,99.607843%,99.607843%);fill-opacity:1;" d="M 60.257812 14.691406 L 60.367188 14.722656 C 63.054688 15.53125 65.664062 16.5625 68.089844 17.984375 C 68.199219 18.046875 68.308594 18.105469 68.417969 18.167969 C 70.363281 19.25 72.183594 20.625 73.824219 22.128906 C 73.9375 22.230469 73.9375 22.230469 74.09375 22.328125 C 74.070312 22.570312 73.902344 22.699219 73.738281 22.859375 L 73.644531 22.953125 C 73.542969 23.054688 73.4375 23.160156 73.332031 23.261719 L 73.117188 23.476562 C 72.925781 23.664062 72.738281 23.855469 72.546875 24.042969 C 72.242188 24.34375 71.9375 24.644531 71.636719 24.949219 C 71.53125 25.050781 71.421875 25.15625 71.316406 25.261719 L 71.121094 25.457031 L 71.03125 25.542969 C 70.886719 25.6875 70.746094 25.839844 70.613281 25.996094 C 70.339844 26.3125 70.039062 26.601562 69.742188 26.898438 C 69.675781 26.964844 69.609375 27.03125 69.542969 27.097656 C 69.363281 27.28125 69.183594 27.460938 69 27.640625 C 68.8125 27.828125 68.621094 28.019531 68.433594 28.207031 C 68.117188 28.527344 67.796875 28.84375 67.480469 29.160156 C 67.113281 29.527344 66.746094 29.894531 66.378906 30.261719 C 66.0625 30.578125 65.75 30.894531 65.433594 31.207031 C 65.246094 31.398438 65.054688 31.585938 64.867188 31.773438 C 64.691406 31.949219 64.515625 32.128906 64.335938 32.304688 C 64.273438 32.367188 64.207031 32.433594 64.144531 32.5 C 63.847656 32.796875 63.550781 33.089844 63.230469 33.363281 C 63.09375 33.480469 62.96875 33.605469 62.84375 33.734375 L 62.761719 33.8125 C 62.707031 33.871094 62.648438 33.925781 62.59375 33.984375 C 62.503906 34.074219 62.414062 34.164062 62.324219 34.253906 C 62.132812 34.445312 61.945312 34.636719 61.753906 34.824219 C 61.535156 35.046875 61.3125 35.269531 61.09375 35.492188 C 61.003906 35.582031 60.914062 35.667969 60.828125 35.757812 L 60.667969 35.921875 L 60.523438 36.0625 C 60.417969 36.164062 60.417969 36.164062 60.363281 36.164062 L 60.351562 36.019531 C 60.253906 34.058594 60.253906 34.058594 59.347656 32.371094 C 59.226562 32.273438 59.226562 32.273438 59.097656 32.203125 L 58.972656 32.125 C 58.570312 31.9375 58.179688 31.867188 57.738281 31.863281 L 57.578125 31.859375 C 57.402344 31.859375 57.226562 31.855469 57.050781 31.855469 C 56.925781 31.851562 56.796875 31.851562 56.671875 31.847656 C 55.050781 31.828125 53.429688 31.828125 51.8125 31.832031 C 51.464844 31.832031 51.117188 31.832031 50.769531 31.832031 C 50.425781 31.832031 50.082031 31.832031 49.738281 31.832031 C 49.535156 31.832031 49.335938 31.832031 49.132812 31.832031 C 48.171875 31.828125 47.210938 31.84375 46.25 31.878906 C 45.992188 31.886719 45.730469 31.894531 45.472656 31.894531 C 44.902344 31.90625 44.5 32.136719 44.105469 32.539062 C 43.300781 33.523438 43.328125 34.882812 43.289062 36.085938 L 43.28125 36.230469 L 43.277344 36.359375 C 43.269531 36.496094 43.242188 36.621094 43.214844 36.753906 L 43.035156 36.753906 C 41.589844 36.757812 40.148438 36.765625 38.703125 36.769531 C 38.003906 36.773438 37.304688 36.777344 36.605469 36.777344 C 35.996094 36.78125 35.386719 36.785156 34.777344 36.785156 C 34.457031 36.789062 34.132812 36.789062 33.8125 36.789062 C 33.507812 36.792969 33.203125 36.792969 32.898438 36.792969 C 32.789062 36.792969 32.679688 36.792969 32.566406 36.796875 C 30.820312 36.757812 30.820312 36.757812 29.328125 37.554688 C 28.839844 38.121094 28.875 38.9375 28.882812 39.644531 C 28.882812 39.726562 28.882812 39.8125 28.882812 39.898438 C 28.886719 40.121094 28.886719 40.339844 28.886719 40.5625 C 28.890625 40.789062 28.890625 41.015625 28.890625 41.242188 C 28.894531 41.6875 28.894531 42.132812 28.898438 42.574219 C 31.136719 42.570312 33.371094 42.5625 35.605469 42.558594 L 35.75 42.558594 C 36.507812 42.554688 37.269531 42.554688 38.03125 42.550781 C 38.8125 42.550781 39.59375 42.546875 40.375 42.546875 C 40.855469 42.542969 41.335938 42.542969 41.820312 42.542969 C 42.148438 42.542969 42.480469 42.539062 42.808594 42.539062 C 43 42.539062 43.191406 42.539062 43.382812 42.539062 C 43.589844 42.539062 43.796875 42.539062 44.003906 42.535156 L 44.183594 42.535156 C 45.09375 42.53125 45.933594 42.175781 46.753906 41.808594 C 47.648438 41.40625 48.550781 41.042969 49.519531 40.867188 L 49.644531 40.839844 C 51.320312 40.535156 53.445312 40.550781 55.074219 41.132812 L 55.128906 41.238281 C 54.953125 41.472656 54.773438 41.703125 54.59375 41.933594 L 54.476562 42.085938 C 53.734375 43.019531 53.078125 43.613281 51.871094 43.75 L 51.671875 43.773438 L 51.566406 43.785156 C 49.71875 43.992188 49.71875 43.992188 47.96875 44.605469 C 47.933594 44.621094 47.894531 44.640625 47.855469 44.660156 C 45.675781 45.722656 44.007812 47.65625 43.199219 49.941406 C 42.898438 50.855469 42.773438 51.773438 42.761719 52.734375 C 42.742188 53.664062 42.355469 54.308594 41.71875 54.96875 C 41.535156 55.140625 41.335938 55.296875 41.132812 55.449219 C 41.058594 55.507812 40.984375 55.566406 40.910156 55.621094 C 40.832031 55.683594 40.757812 55.742188 40.679688 55.800781 L 40.566406 55.890625 L 40.460938 55.972656 L 40.363281 56.042969 L 40.277344 56.089844 L 40.117188 56.035156 C 39.242188 54 39.625 51.195312 40.277344 49.144531 L 40.320312 49.015625 C 40.511719 48.414062 40.757812 47.84375 41.027344 47.277344 L 41.078125 47.164062 C 41.410156 46.457031 41.816406 45.789062 42.253906 45.140625 C 42.132812 45.078125 42.0625 45.078125 41.925781 45.078125 L 41.46875 45.078125 C 41.285156 45.074219 41.101562 45.074219 40.917969 45.074219 L 40.527344 45.074219 C 40.246094 45.070312 39.964844 45.070312 39.683594 45.070312 C 39.277344 45.070312 38.867188 45.066406 38.460938 45.066406 C 37.800781 45.0625 37.140625 45.0625 36.480469 45.058594 C 35.597656 45.054688 34.71875 45.050781 33.839844 45.050781 C 32.191406 45.042969 30.546875 45.039062 28.898438 45.03125 L 28.898438 45.136719 C 28.902344 47.445312 28.902344 49.757812 28.902344 52.066406 L 28.902344 52.21875 C 28.902344 53.015625 28.902344 53.808594 28.902344 54.605469 C 28.902344 55.425781 28.90625 56.25 28.90625 57.070312 C 28.90625 57.527344 28.90625 57.988281 28.90625 58.449219 C 28.90625 61.363281 28.910156 64.285156 28.792969 67.199219 L 28.789062 67.359375 C 28.773438 67.695312 28.679688 67.859375 28.4375 68.089844 L 28.261719 68.269531 L 28.175781 68.351562 C 28.082031 68.445312 27.996094 68.542969 27.910156 68.644531 C 27.441406 69.1875 26.9375 69.703125 26.429688 70.214844 L 26.246094 70.394531 C 26.121094 70.519531 25.996094 70.644531 25.871094 70.769531 C 25.710938 70.929688 25.554688 71.089844 25.394531 71.246094 C 25.269531 71.371094 25.144531 71.496094 25.023438 71.621094 C 24.960938 71.679688 24.902344 71.738281 24.84375 71.796875 C 24.5625 72.078125 24.277344 72.359375 23.972656 72.621094 C 23.816406 72.757812 23.667969 72.90625 23.519531 73.054688 L 23.425781 73.152344 C 23.328125 73.25 23.230469 73.347656 23.128906 73.449219 L 22.925781 73.652344 C 22.761719 73.816406 22.601562 73.980469 22.4375 74.144531 C 22.214844 73.960938 22.011719 73.78125 21.835938 73.554688 C 21.679688 73.363281 21.527344 73.171875 21.363281 72.984375 C 21.050781 72.617188 20.75 72.238281 20.460938 71.847656 L 20.382812 71.746094 C 19.644531 70.75 18.945312 69.714844 18.324219 68.644531 C 18.28125 68.578125 18.242188 68.511719 18.203125 68.445312 C 17.777344 67.746094 17.40625 67.019531 17.039062 66.292969 L 16.957031 66.125 C 15.820312 63.867188 14.953125 61.449219 14.347656 58.996094 C 14.3125 58.851562 14.277344 58.710938 14.242188 58.570312 C 14.007812 57.644531 13.832031 56.710938 13.675781 55.769531 L 13.648438 55.609375 C 13.546875 54.992188 13.484375 54.375 13.429688 53.753906 L 13.417969 53.640625 C 13.339844 52.777344 13.292969 51.914062 13.292969 51.046875 L 13.292969 50.785156 C 13.292969 50.605469 13.292969 50.421875 13.292969 50.242188 C 13.292969 50.058594 13.292969 49.878906 13.289062 49.695312 C 13.285156 48.234375 13.3125 46.78125 13.507812 45.328125 L 13.535156 45.117188 C 13.6875 43.988281 13.894531 42.882812 14.15625 41.773438 L 14.207031 41.558594 C 14.640625 39.679688 15.222656 37.835938 15.972656 36.058594 L 16.042969 35.890625 C 16.433594 34.96875 16.863281 34.070312 17.308594 33.171875 L 17.390625 33.007812 C 17.828125 32.125 18.335938 31.285156 18.855469 30.449219 L 18.941406 30.3125 C 20.101562 28.464844 21.460938 26.730469 22.949219 25.136719 C 23.019531 25.058594 23.085938 24.984375 23.15625 24.90625 C 23.484375 24.539062 23.832031 24.1875 24.183594 23.835938 L 24.328125 23.691406 C 24.566406 23.453125 24.808594 23.21875 25.0625 23 C 25.210938 22.871094 25.355469 22.738281 25.496094 22.601562 C 25.753906 22.363281 26.019531 22.136719 26.292969 21.914062 C 26.425781 21.808594 26.558594 21.695312 26.6875 21.585938 C 27.070312 21.253906 27.472656 20.949219 27.878906 20.648438 C 27.988281 20.570312 28.097656 20.488281 28.203125 20.410156 C 28.714844 20.03125 29.238281 19.675781 29.765625 19.324219 L 29.863281 19.257812 C 30.351562 18.929688 30.851562 18.621094 31.355469 18.324219 L 31.5 18.238281 C 33.289062 17.1875 35.15625 16.28125 37.105469 15.558594 C 37.265625 15.5 37.425781 15.4375 37.585938 15.375 C 38.433594 15.050781 39.304688 14.804688 40.175781 14.558594 C 40.265625 14.53125 40.355469 14.507812 40.445312 14.480469 C 41.910156 14.070312 43.417969 13.769531 44.925781 13.570312 L 45.074219 13.546875 C 50.105469 12.832031 55.390625 13.230469 60.257812 14.691406 M 79.753906 28.527344 C 79.855469 28.652344 79.953125 28.78125 80.046875 28.917969 L 80.140625 29.042969 C 80.734375 29.882812 81.320312 30.734375 81.832031 31.628906 C 81.898438 31.746094 81.96875 31.867188 82.039062 31.984375 C 82.59375 32.9375 83.109375 33.90625 83.546875 34.917969 C 83.613281 35.070312 83.683594 35.21875 83.753906 35.367188 C 83.933594 35.757812 84.09375 36.152344 84.25 36.550781 L 84.296875 36.667969 C 85.464844 39.648438 86.210938 42.785156 86.554688 45.96875 C 86.558594 46.011719 86.5625 46.050781 86.566406 46.089844 C 86.667969 47.027344 86.707031 47.964844 86.710938 48.90625 L 86.710938 49.042969 C 86.710938 49.28125 86.710938 49.519531 86.710938 49.757812 C 86.710938 49.953125 86.710938 50.144531 86.714844 50.335938 C 86.722656 52.027344 86.640625 53.691406 86.386719 55.363281 L 86.367188 55.5 C 86.242188 56.363281 86.085938 57.21875 85.898438 58.066406 L 85.863281 58.222656 C 85.101562 61.675781 83.730469 65.035156 81.996094 68.109375 L 81.917969 68.25 C 81.03125 69.828125 79.984375 71.347656 78.847656 72.757812 L 78.722656 72.910156 C 78.4375 73.257812 78.148438 73.601562 77.855469 73.945312 C 77.773438 74.042969 77.691406 74.140625 77.609375 74.234375 C 77.121094 74.8125 77.121094 74.8125 76.851562 75.070312 C 76.765625 75.160156 76.683594 75.25 76.601562 75.347656 C 76.367188 75.617188 76.113281 75.871094 75.859375 76.125 C 75.777344 76.207031 75.695312 76.285156 75.617188 76.367188 C 75.359375 76.625 75.101562 76.875 74.828125 77.109375 C 74.679688 77.234375 74.539062 77.371094 74.394531 77.503906 C 74.089844 77.785156 73.773438 78.050781 73.449219 78.3125 C 73.386719 78.367188 73.320312 78.417969 73.253906 78.472656 C 69.511719 81.550781 65.128906 83.855469 58.707031 85.738281 L 58.535156 85.78125 C 56.96875 86.164062 55.394531 86.425781 53.792969 86.59375 L 53.675781 86.605469 C 51.59375 86.824219 49.464844 86.847656 47.378906 86.664062 C 47.214844 86.648438 47.050781 86.636719 46.882812 86.625 C 46.113281 86.566406 45.351562 86.476562 44.589844 86.363281 L 44.414062 86.339844 C 43.59375 86.222656 42.785156 86.082031 41.976562 85.878906 C 41.824219 85.84375 41.671875 85.808594 41.519531 85.777344 C 40.902344 85.640625 40.292969 85.484375 39.6875 85.304688 C 39.578125 85.269531 39.46875 85.238281 39.359375 85.207031 C 37.929688 84.785156 36.53125 84.261719 35.167969 83.65625 C 35.039062 83.597656 34.90625 83.539062 34.773438 83.484375 C 34.152344 83.210938 33.554688 82.910156 32.960938 82.585938 L 32.800781 82.5 C 32.054688 82.089844 31.320312 81.664062 30.609375 81.195312 L 30.5 81.125 C 29.839844 80.695312 29.195312 80.246094 28.578125 79.753906 C 28.804688 79.25 29.320312 78.847656 29.707031 78.464844 L 29.816406 78.363281 L 29.90625 78.269531 C 30.007812 78.167969 30.097656 78.0625 30.191406 77.953125 C 30.375 77.746094 30.566406 77.546875 30.761719 77.351562 L 30.867188 77.246094 C 30.980469 77.128906 31.097656 77.011719 31.214844 76.898438 L 31.464844 76.644531 C 31.734375 76.371094 32.007812 76.097656 32.28125 75.824219 L 32.5625 75.542969 C 33.054688 75.046875 33.550781 74.554688 34.042969 74.0625 L 34.121094 73.984375 C 34.527344 73.574219 34.933594 73.167969 35.34375 72.757812 C 35.761719 72.335938 36.183594 71.914062 36.601562 71.496094 C 36.839844 71.257812 37.074219 71.023438 37.308594 70.785156 C 37.53125 70.5625 37.75 70.34375 37.972656 70.121094 C 38.054688 70.039062 38.136719 69.957031 38.214844 69.878906 C 39.453125 68.628906 39.453125 68.628906 40.363281 68.621094 L 40.519531 68.625 L 40.6875 68.621094 C 40.871094 68.621094 41.058594 68.621094 41.246094 68.625 C 41.378906 68.625 41.515625 68.621094 41.648438 68.621094 C 41.941406 68.621094 42.234375 68.621094 42.527344 68.621094 C 42.964844 68.625 43.398438 68.625 43.835938 68.621094 C 44.570312 68.621094 45.300781 68.621094 46.035156 68.621094 C 47.039062 68.625 48.039062 68.621094 49.039062 68.621094 L 50.582031 68.621094 C 51.695312 68.621094 52.808594 68.621094 53.917969 68.621094 L 54.066406 68.621094 C 55.644531 68.621094 57.222656 68.621094 58.800781 68.621094 C 59.910156 68.621094 61.019531 68.621094 62.128906 68.617188 L 63.667969 68.617188 C 64.667969 68.617188 65.667969 68.617188 66.667969 68.617188 C 67.398438 68.617188 68.128906 68.617188 68.859375 68.617188 C 69.289062 68.617188 69.722656 68.617188 70.15625 68.617188 C 70.480469 68.617188 70.804688 68.617188 71.128906 68.617188 C 71.257812 68.617188 71.390625 68.617188 71.519531 68.617188 C 72.417969 68.621094 73.265625 68.605469 73.976562 67.96875 C 74.339844 67.574219 74.472656 67.109375 74.476562 66.582031 L 74.476562 66.457031 C 74.480469 66.320312 74.480469 66.179688 74.484375 66.039062 C 74.484375 65.9375 74.484375 65.835938 74.484375 65.734375 C 74.488281 65.449219 74.492188 65.167969 74.492188 64.882812 L 74.5 64.335938 C 74.53125 60.789062 74.527344 57.242188 74.523438 53.695312 C 74.523438 53.03125 74.523438 52.371094 74.523438 51.707031 L 74.523438 50.851562 C 74.519531 48.910156 74.519531 46.972656 74.519531 45.03125 L 74.367188 45.03125 C 73.152344 45.035156 71.933594 45.035156 70.71875 45.035156 C 70.128906 45.035156 69.539062 45.035156 68.953125 45.035156 C 68.4375 45.035156 67.925781 45.035156 67.410156 45.039062 C 67.140625 45.039062 66.867188 45.039062 66.597656 45.039062 C 64.425781 45.039062 64.425781 45.039062 63.40625 44.980469 C 63.457031 44.902344 63.507812 44.828125 63.558594 44.75 L 63.644531 44.621094 C 63.765625 44.445312 63.898438 44.285156 64.039062 44.128906 L 64.125 44.03125 C 64.179688 43.964844 64.234375 43.902344 64.292969 43.839844 C 64.359375 43.761719 64.425781 43.679688 64.492188 43.601562 C 64.945312 43.066406 65.453125 42.683594 66.160156 42.613281 C 66.308594 42.605469 66.460938 42.601562 66.613281 42.59375 L 66.792969 42.589844 C 67.683594 42.5625 68.574219 42.566406 69.464844 42.566406 C 69.617188 42.566406 69.765625 42.566406 69.917969 42.566406 C 71.433594 42.570312 72.949219 42.582031 74.464844 42.628906 L 74.464844 42.113281 C 74.464844 41.867188 74.472656 41.625 74.492188 41.378906 C 74.6875 39.496094 74.6875 39.496094 74.199219 37.765625 C 73.6875 37.207031 73.027344 37.03125 72.324219 36.835938 C 72.128906 36.777344 71.933594 36.710938 71.742188 36.644531 C 71.742188 36.429688 71.8125 36.390625 71.957031 36.230469 L 72.035156 36.152344 C 72.386719 35.777344 72.753906 35.417969 73.117188 35.058594 L 73.195312 34.980469 C 73.269531 34.90625 73.339844 34.835938 73.410156 34.765625 C 73.519531 34.65625 73.621094 34.539062 73.722656 34.421875 C 73.945312 34.167969 74.179688 33.933594 74.417969 33.695312 L 74.5625 33.550781 C 74.691406 33.421875 74.820312 33.292969 74.949219 33.164062 C 75.082031 33.027344 75.21875 32.894531 75.355469 32.757812 C 75.582031 32.53125 75.808594 32.304688 76.035156 32.078125 C 76.296875 31.816406 76.558594 31.554688 76.820312 31.292969 C 77.046875 31.066406 77.273438 30.839844 77.5 30.613281 C 77.632812 30.480469 77.769531 30.34375 77.902344 30.210938 C 78.050781 30.058594 78.203125 29.910156 78.351562 29.761719 L 78.484375 29.628906 C 78.710938 29.402344 78.941406 29.183594 79.1875 28.976562 C 79.324219 28.855469 79.445312 28.726562 79.570312 28.59375 C 79.648438 28.527344 79.648438 28.527344 79.753906 28.527344 "/>
<path style=" stroke:none;fill-rule:nonzero;fill:rgb(99.607843%,99.607843%,99.607843%);fill-opacity:1;" d="M 62.125 46.632812 C 62.179688 46.714844 62.179688 46.714844 62.230469 46.824219 L 62.289062 46.941406 L 62.351562 47.074219 L 62.414062 47.210938 C 63.710938 50.0625 64.128906 53.332031 63.195312 56.355469 C 63.183594 56.398438 63.171875 56.4375 63.15625 56.476562 C 62.785156 57.707031 62.195312 58.90625 61.429688 59.9375 L 61.363281 60.03125 C 61.027344 60.496094 60.652344 60.914062 60.257812 61.324219 L 60.179688 61.40625 C 58.042969 63.632812 54.96875 64.933594 51.890625 65.015625 C 49.441406 65.03125 47.175781 64.289062 45.085938 63.035156 C 45.363281 62.703125 45.648438 62.394531 45.980469 62.113281 C 46.132812 61.980469 46.28125 61.84375 46.421875 61.699219 L 46.53125 61.59375 C 46.601562 61.519531 46.675781 61.445312 46.746094 61.371094 C 47.011719 61.113281 47.011719 61.113281 47.230469 61.101562 C 47.300781 61.117188 47.367188 61.140625 47.4375 61.164062 L 47.585938 61.210938 C 47.769531 61.269531 47.953125 61.332031 48.132812 61.390625 C 48.785156 61.605469 49.433594 61.78125 50.105469 61.914062 L 50.3125 61.953125 C 50.851562 62.058594 51.371094 62.101562 51.917969 62.097656 L 52.042969 62.097656 C 54.089844 62.089844 56.097656 61.351562 57.640625 59.988281 L 57.71875 59.917969 C 59.535156 58.320312 60.671875 56.046875 60.84375 53.632812 C 60.878906 52.851562 60.84375 52.101562 60.683594 51.335938 L 60.660156 51.210938 C 60.515625 50.476562 60.277344 49.78125 60.019531 49.078125 L 59.980469 48.96875 C 59.945312 48.871094 59.910156 48.773438 59.871094 48.671875 C 59.828125 48.5 59.828125 48.40625 59.882812 48.238281 C 59.992188 48.082031 60.125 47.949219 60.257812 47.808594 L 60.351562 47.707031 C 60.6875 47.347656 61.609375 46.460938 62.125 46.632812 "/>
<path style=" stroke:none;fill-rule:nonzero;fill:rgb(41.176471%,41.176471%,41.176471%);fill-opacity:1;" d="M 33.960938 33.367188 L 34.101562 33.367188 C 34.800781 33.371094 35.480469 33.402344 36.164062 33.546875 L 36.296875 33.574219 C 36.636719 33.648438 36.636719 33.648438 36.699219 33.707031 C 36.703125 33.835938 36.703125 33.960938 36.703125 34.085938 L 36.703125 34.203125 C 36.703125 34.324219 36.703125 34.445312 36.703125 34.566406 C 36.703125 34.648438 36.703125 34.730469 36.703125 34.8125 C 36.699219 35.011719 36.699219 35.214844 36.699219 35.417969 L 36.390625 35.472656 C 36.3125 35.488281 36.234375 35.503906 36.160156 35.515625 C 35.5 35.636719 34.839844 35.640625 34.175781 35.644531 C 34.027344 35.644531 33.875 35.644531 33.726562 35.648438 C 32.988281 35.652344 32.292969 35.566406 31.570312 35.417969 C 31.503906 34.847656 31.511719 34.28125 31.515625 33.707031 C 32.3125 33.402344 33.121094 33.359375 33.960938 33.367188 "/>
</g>
</svg>
